<svg width="29" height="16" viewBox="0 0 29 16" fill="none" xmlns="http://www.w3.org/2000/svg">
<path d="M17.0306 5.52931C16.5832 4.9359 16.0212 4.44241 15.3793 4.07933C14.7375 3.71625 14.0295 3.4913 13.2991 3.41838C12.5687 3.34547 11.8314 3.42614 11.1327 3.6554C10.4341 3.88467 9.78893 4.25766 9.23719 4.75133L8.76053 4.38179C5.48585 2.02839 0.900357 4.02683 0.471361 8.05776C0.340858 9.99972 0.307448 11.9472 0.371262 13.8926C0.360734 14.1423 0.40062 14.3915 0.488442 14.6247C0.576265 14.858 0.71015 15.0704 0.881788 15.2486C1.05343 15.4269 1.25915 15.5673 1.4862 15.6611C1.71325 15.7549 1.95677 15.8001 2.20165 15.7938C2.44131 15.7928 2.67828 15.7423 2.89833 15.6455C3.11838 15.5486 3.31697 15.4074 3.48215 15.2302C3.64733 15.0531 3.77571 14.8437 3.85955 14.6147C3.9434 14.3857 3.98099 14.1417 3.97007 13.8975C3.97007 12.4971 3.97007 11.0968 3.97007 9.69153C3.96621 9.27493 3.9949 8.85869 4.05587 8.44675C4.13275 8.02513 4.36328 7.64884 4.70108 7.39355C5.03889 7.13826 5.45893 7.02291 5.87672 7.07069C6.28512 7.1021 6.66826 7.28439 6.95433 7.58336C7.2404 7.88234 7.40975 8.27749 7.43064 8.69473C7.45447 9.21015 7.43064 9.72556 7.43064 10.241C7.43064 11.4955 7.43064 12.75 7.43064 14.0045C7.42574 14.3683 7.53183 14.7248 7.73422 15.0244C7.93661 15.3241 8.22529 15.5522 8.56033 15.6771C9.77582 16.1926 11.0151 15.2881 11.039 13.8635C11.039 12.2054 11.039 10.5473 11.0866 8.88923C11.1027 8.48841 11.2228 8.09913 11.4346 7.76115C11.6363 7.46313 11.9286 7.24117 12.2663 7.12955C12.6041 7.01794 12.9684 7.02288 13.3031 7.14363C13.6807 7.25157 14.0107 7.48779 14.2387 7.8132C14.4667 8.1386 14.5789 8.53367 14.5567 8.93299C14.5567 10.6105 14.5567 12.288 14.5567 13.9656C14.5567 14.2063 14.6032 14.4447 14.6935 14.6671C14.7838 14.8895 14.9162 15.0916 15.0831 15.2618C15.2499 15.432 15.4481 15.567 15.6661 15.6592C15.8841 15.7513 16.1178 15.7987 16.3538 15.7987C16.5898 15.7987 16.8234 15.7513 17.0415 15.6592C17.2595 15.567 17.4576 15.432 17.6244 15.2618C17.7913 15.0916 17.9237 14.8895 18.014 14.6671C18.1043 14.4447 18.1508 14.2063 18.1508 13.9656C18.1508 12.2491 18.1508 10.5619 18.1508 8.82116C18.154 7.62606 17.7591 6.46532 17.0306 5.52931Z" fill="white"/>
<path d="M26.0349 6.5015L25.4676 6.26325C26.0301 5.8159 26.564 5.43177 27.0406 4.99416C27.4641 4.65403 27.8297 4.24496 28.1227 3.78342C28.9806 2.14966 27.7699 0.248458 25.849 0.204696C24.0758 0.180384 22.3074 0.180384 20.5342 0.180384C20.317 0.165073 20.0991 0.19678 19.8947 0.273425C19.6904 0.350069 19.5042 0.46992 19.3485 0.625113C19.1928 0.780306 19.071 0.967335 18.9911 1.17393C18.9112 1.38052 18.875 1.60202 18.8849 1.82387C18.8637 2.04985 18.8909 2.27783 18.9646 2.49201C19.0384 2.7062 19.1569 2.90146 19.312 3.06428C19.467 3.22709 19.655 3.35356 19.8627 3.43492C20.0705 3.51627 20.2931 3.55057 20.5151 3.53544C21.3826 3.53544 22.2502 3.53544 23.1177 3.53544C23.2655 3.58406 23.418 3.58406 23.704 3.58406C22.5266 4.55654 21.4398 5.4804 20.3673 6.39453C19.6762 6.97802 19.4665 7.61499 19.7096 8.33949C19.8387 8.6971 20.0793 9.00161 20.3944 9.20627C20.7096 9.41093 21.0819 9.50443 21.4541 9.47243C22.3741 9.47243 23.2988 9.47243 24.2188 9.47243C24.4251 9.43352 24.6373 9.44139 24.8403 9.4955C25.0433 9.54961 25.2321 9.64862 25.3934 9.78551C25.5547 9.92241 25.6845 10.0938 25.7735 10.2876C25.8626 10.4814 25.9088 10.6928 25.9088 10.9068C25.9088 11.1209 25.8626 11.3323 25.7735 11.5261C25.6845 11.7198 25.5547 11.8913 25.3934 12.0282C25.2321 12.1651 25.0433 12.2641 24.8403 12.3182C24.6373 12.3723 24.4251 12.3802 24.2188 12.3412C23.0271 12.3412 21.8355 12.3412 20.6438 12.3412C20.2261 12.3643 19.8329 12.5498 19.5452 12.8596C19.2575 13.1694 19.0971 13.5799 19.0971 14.0066C19.0971 14.4334 19.2575 14.8439 19.5452 15.1537C19.8329 15.4635 20.2261 15.649 20.6438 15.672C21.8879 15.672 23.1368 15.672 24.3808 15.672C25.4737 15.6437 26.5238 15.2331 27.3552 14.5089C28.1866 13.7848 28.7487 12.7912 28.9473 11.6945C29.1056 10.6209 28.9042 9.52417 28.3757 8.58176C27.8472 7.63936 27.0224 6.90642 26.0349 6.5015Z" fill="white"/>
</svg>
