<svg width="36" height="36" viewBox="0 0 36 36" fill="none" xmlns="http://www.w3.org/2000/svg">
<g clip-path="url(#clip0_3751_533)">
<path d="M25.7949 22.6886C27.5246 20.3265 28.5592 17.4252 28.5592 14.2799C28.5592 6.40637 22.1531 0.000244141 14.2796 0.000244141C6.40606 0.000244141 0 6.40637 0 14.2799C0 22.1534 6.40613 28.5596 14.2797 28.5596C17.4249 28.5596 20.3266 27.5248 22.6886 25.7951L32.0435 35.15L35.15 32.0436C35.15 32.0435 25.7949 22.6886 25.7949 22.6886ZM14.2797 24.1658C8.82824 24.1658 4.39377 19.7313 4.39377 14.2799C4.39377 8.82848 8.82824 4.39401 14.2797 4.39401C19.7311 4.39401 24.1655 8.82848 24.1655 14.2799C24.1655 19.7313 19.731 24.1658 14.2797 24.1658Z" fill="#292929"/>
</g>
<defs>
<clipPath id="clip0_3751_533">
<rect width="35.15" height="35.15" rx="5" fill="white"/>
</clipPath>
</defs>
</svg>
