<svg width="46" height="16" viewBox="0 0 46 16" fill="none" xmlns="http://www.w3.org/2000/svg">
<path d="M32.8808 5.99083H31.2736V11.4557C31.2736 11.558 31.1852 11.6456 31.0819 11.6456H29.8434C29.7402 11.6456 29.6517 11.558 29.6517 11.4557V5.99083H28.0298C27.9856 5.99083 27.9266 5.97622 27.8971 5.94699C27.8676 5.91777 27.8381 5.87394 27.8381 5.81549V4.8511C27.8381 4.80727 27.8529 4.74882 27.8971 4.7196C27.9266 4.69037 27.9856 4.66115 28.0298 4.67576H32.8808C32.984 4.67576 33.0725 4.74882 33.0725 4.8511V5.81549C33.0725 5.91777 32.984 5.99083 32.8808 5.99083Z" fill="white"/>
<path d="M38.0558 11.6017C37.4218 11.6893 36.773 11.7332 36.139 11.7186C34.9152 11.7186 33.8389 11.4117 33.8389 9.70213V6.5898C33.8389 4.88021 34.93 4.58797 36.1538 4.58797C36.7878 4.57336 37.4218 4.6172 38.0558 4.70487C38.1885 4.71948 38.2475 4.77793 38.2475 4.89482V5.77154C38.2475 5.87382 38.159 5.96149 38.0558 5.96149H36.0653C35.623 5.96149 35.4608 6.10761 35.4608 6.60441V7.4519H37.9821C38.0853 7.4519 38.1738 7.53957 38.1738 7.64186V8.53318C38.1738 8.63547 38.0853 8.72314 37.9821 8.72314H35.4608V9.71674C35.4608 10.1989 35.623 10.3597 36.0653 10.3597H38.0558C38.159 10.3597 38.2475 10.4473 38.2475 10.5496V11.4263C38.2475 11.5286 38.1885 11.5871 38.0558 11.6017Z" fill="white"/>
<path d="M45.1924 11.6455H43.6884C43.5852 11.6601 43.482 11.6016 43.4378 11.4993L42.1255 9.45367L40.9459 11.4555C40.8869 11.5724 40.8132 11.6455 40.71 11.6455H39.3093C39.2798 11.6455 39.2355 11.6455 39.206 11.6162C39.1766 11.587 39.1618 11.5578 39.1618 11.5139C39.1618 11.4847 39.1766 11.4701 39.1766 11.4555L41.2261 8.06555L39.1471 4.85094C39.1323 4.83632 39.1323 4.8071 39.1323 4.79249C39.1323 4.71943 39.206 4.66098 39.2798 4.67559H40.828C40.9312 4.67559 41.0049 4.76327 41.0639 4.85094L42.2729 6.75048L43.4525 4.85094C43.4967 4.74865 43.5852 4.69021 43.6884 4.67559H45.0891C45.1629 4.67559 45.2366 4.71943 45.2366 4.79249C45.2366 4.8071 45.2218 4.83632 45.2218 4.85094L43.1576 8.09477L45.3103 11.4555C45.3251 11.4847 45.3398 11.5139 45.3398 11.5432C45.3251 11.6016 45.2661 11.6455 45.1924 11.6455Z" fill="white"/>
<path d="M25.5821 4.69055C25.5083 4.69055 25.4494 4.73439 25.4346 4.80745L24.0634 9.84854C24.0486 9.95082 24.0191 9.99466 23.9307 9.99466C23.8422 9.99466 23.8127 9.95082 23.798 9.84854L22.4267 4.80745C22.412 4.73439 22.353 4.69055 22.2793 4.69055H20.9228C20.8785 4.69055 20.8343 4.70516 20.8048 4.749C20.7753 4.77822 20.7606 4.82206 20.7753 4.86589C20.7753 4.86589 22.4562 10.6522 22.4709 10.7106C22.6921 11.3974 23.2377 11.7335 23.9307 11.7335C24.5942 11.7627 25.1987 11.3389 25.3904 10.7106C25.4199 10.6376 27.0565 4.86589 27.0565 4.86589C27.0713 4.82206 27.0565 4.77822 27.027 4.749C26.9975 4.71978 26.9533 4.69055 26.9091 4.69055H25.5821Z" fill="white"/>
<path d="M17.9149 0H3.80428C3.28822 0 2.81639 0.277625 2.56573 0.70137C2.30033 1.13973 2.28559 1.68037 2.5215 2.11872L3.93698 4.77808H1.37142C1.04704 4.77808 0.737403 4.93881 0.560467 5.21644C0.383532 5.49406 0.383532 5.84475 0.530978 6.13699L5.07231 14.6411C5.2345 14.9479 5.55889 15.1379 5.89801 15.1379C6.23714 15.1379 6.56152 14.9479 6.72371 14.6411L7.96225 12.3324L9.51044 15.2402C9.7611 15.7078 10.2624 16 10.7932 16C11.324 16 11.8253 15.7078 12.076 15.2402L19.1534 2.04566C19.3893 1.60731 19.3746 1.08128 19.1092 0.672146C18.8733 0.248402 18.4014 0 17.9149 0ZM11.6042 5.56712L8.5078 11.3242C8.40459 11.5288 8.19817 11.6457 7.96225 11.6457C7.72634 11.6457 7.51992 11.5142 7.4167 11.3242L4.36457 5.62557C4.27611 5.45023 4.27611 5.24566 4.37932 5.07032C4.48253 4.89498 4.67421 4.79269 4.86589 4.79269H11.1176C11.3093 4.79269 11.4862 4.88036 11.5747 5.0411C11.6926 5.20183 11.6926 5.40639 11.6042 5.56712Z" fill="white"/>
</svg>
