<svg width="35" height="35" viewBox="0 0 35 35" fill="none" xmlns="http://www.w3.org/2000/svg">
<g clip-path="url(#clip0_7347_1105)">
<circle cx="17.5" cy="17.5" r="16.5" stroke="#303030" stroke-width="2"/>
<path d="M27.8026 12.2486C27.5447 11.2896 26.7885 10.5336 25.8296 10.2754C24.0778 9.79605 17.0705 9.79605 17.0705 9.79605C17.0705 9.79605 10.0635 9.79605 8.3117 10.2572C7.37124 10.5152 6.59666 11.2897 6.33869 12.2486C5.87769 14.0003 5.87769 17.633 5.87769 17.633C5.87769 17.633 5.87769 21.284 6.33869 23.0174C6.59693 23.9763 7.35279 24.7323 8.31183 24.9905C10.0819 25.47 17.0708 25.47 17.0708 25.47C17.0708 25.47 24.0778 25.47 25.8296 25.0088C26.7887 24.7507 27.5447 23.9947 27.8029 23.0358C28.2638 21.284 28.2638 17.6515 28.2638 17.6515C28.2638 17.6515 28.2822 14.0003 27.8026 12.2486ZM14.8396 20.989V14.277L20.6665 17.633L14.8396 20.989Z" fill="#303030"/>
</g>
<defs>
<clipPath id="clip0_7347_1105">
<rect width="35" height="35" fill="white"/>
</clipPath>
</defs>
</svg>
