<svg width="16" height="16" viewBox="0 0 16 16" fill="none" xmlns="http://www.w3.org/2000/svg">
<g clip-path="url(#clip0_1_306)">
<path d="M15.8326 7.59562L14.6903 6.4533L8.40431 0.167326C8.18118 -0.0557753 7.81942 -0.0557753 7.59628 0.167326L1.31028 6.4533L0.167381 7.59623C-0.0518699 7.82324 -0.0456085 8.185 0.18141 8.40425C0.402871 8.61814 0.753946 8.61814 0.975407 8.40425L1.14226 8.23623V15.4285C1.14226 15.7442 1.3981 16 1.71372 16H14.2857C14.6013 16 14.8572 15.7442 14.8572 15.4285V8.23623L15.0246 8.40368C15.2516 8.62293 15.6134 8.61664 15.8326 8.38965C16.0465 8.16819 16.0465 7.81708 15.8326 7.59562ZM9.71409 14.8571H6.28537V10.2855H9.71409V14.8571ZM13.7142 14.8571H10.857V9.71403C10.857 9.39841 10.6011 9.14256 10.2855 9.14256H5.7139C5.39829 9.14256 5.14244 9.39841 5.14244 9.71403V14.8571H2.28518V7.09334L7.99969 1.3788L13.7142 7.09334V14.8571Z" fill="#C4C4C4"/>
</g>
<defs>
<clipPath id="clip0_1_306">
<rect width="16" height="16" fill="white"/>
</clipPath>
</defs>
</svg>
