<svg width="35" height="35" viewBox="0 0 35 35" fill="none" xmlns="http://www.w3.org/2000/svg">
<g clip-path="url(#clip0_7347_1100)">
<circle cx="17.5" cy="17.5" r="16.5" stroke="#303030" stroke-width="2"/>
<path d="M29.9914 10.1563C29.0947 10.5497 28.1392 10.8104 27.143 10.937C28.1678 10.3251 28.95 9.36358 29.3177 8.20462C28.3622 8.7743 27.3072 9.1767 26.1829 9.40126C25.2757 8.43521 23.9826 7.83688 22.5719 7.83688C19.835 7.83688 17.6316 10.0584 17.6316 12.7817C17.6316 13.1735 17.6648 13.5503 17.7462 13.909C13.6363 13.7086 9.99962 11.7388 7.5566 8.73813C7.13009 9.47812 6.87991 10.3251 6.87991 11.2369C6.87991 12.949 7.76157 14.4666 9.07577 15.3453C8.28152 15.3302 7.50235 15.0996 6.84223 14.7364C6.84223 14.7515 6.84223 14.7711 6.84223 14.7907C6.84223 17.193 8.55581 19.1884 10.8029 19.6481C10.4005 19.7581 9.96195 19.8108 9.5068 19.8108C9.19031 19.8108 8.8708 19.7928 8.57089 19.7264C9.21141 21.6842 11.029 23.1235 13.1902 23.1702C11.5082 24.4859 9.37267 25.2786 7.06076 25.2786C6.65535 25.2786 6.26652 25.2605 5.87769 25.2108C8.06751 26.623 10.6628 27.4293 13.4614 27.4293C22.5583 27.4293 27.5318 19.8937 27.5318 13.3619C27.5318 13.1434 27.5243 12.9324 27.5137 12.7229C28.4948 12.0266 29.3192 11.157 29.9914 10.1563Z" fill="#303030"/>
</g>
<defs>
<clipPath id="clip0_7347_1100">
<rect width="35" height="35" fill="white"/>
</clipPath>
</defs>
</svg>
