<svg width="13" height="7" viewBox="0 0 13 7" fill="none" xmlns="http://www.w3.org/2000/svg">
<path d="M12.6 6.13647C12.5989 6.24898 12.5519 6.36118 12.4588 6.44888L12.4587 6.44902C12.2574 6.63896 11.9216 6.63894 11.7204 6.44903L11.7204 6.44902L6.7744 1.78259L6.4999 1.5236L6.2254 1.78259L1.27968 6.44882C1.27966 6.44884 1.27964 6.44886 1.27962 6.44888C1.07811 6.63886 0.742449 6.63877 0.541181 6.44888L0.541122 6.44882C0.448342 6.36133 0.401297 6.24944 0.400026 6.13719C0.401078 6.02468 0.448119 5.91242 0.541189 5.82462L0.541192 5.82461L6.13082 0.550956C6.13085 0.550933 6.13087 0.55091 6.13089 0.550887C6.22923 0.458193 6.36162 0.408533 6.49988 0.408533C6.63821 0.408533 6.77079 0.458327 6.86907 0.55102C6.86908 0.551029 6.86909 0.551037 6.8691 0.551047L12.4587 5.82475L12.4588 5.82482C12.5516 5.9124 12.5987 6.02428 12.6 6.13647Z" fill="white" stroke="white" stroke-width="0.8"/>
</svg>
