<svg width="21" height="20" viewBox="0 0 21 20" fill="none" xmlns="http://www.w3.org/2000/svg">
<path d="M19.8962 17.0061C19.486 18.1642 17.8583 19.1247 16.5599 19.4052C15.6717 19.5944 14.5114 19.7452 10.6057 18.126C5.6098 16.0562 2.39255 10.9796 2.1418 10.6502C1.90167 10.3209 0.123047 7.96211 0.123047 5.52261C0.123047 3.08311 1.36192 1.89524 1.8613 1.38524C2.27142 0.96661 2.9493 0.77536 3.59955 0.77536C3.80992 0.77536 3.99905 0.785985 4.16905 0.794485C4.66842 0.815735 4.91917 0.845486 5.24855 1.63386C5.65867 2.62199 6.65742 5.06149 6.77642 5.31224C6.89755 5.56299 7.01867 5.90299 6.84867 6.23236C6.6893 6.57236 6.54905 6.72323 6.2983 7.01223C6.04755 7.30124 5.80955 7.52224 5.5588 7.83249C5.3293 8.10236 5.07005 8.39136 5.35905 8.89074C5.64805 9.37949 6.6468 11.0094 8.1173 12.3184C10.0149 14.0077 11.5534 14.5475 12.1038 14.777C12.5139 14.947 13.0027 14.9066 13.3023 14.5879C13.6827 14.1777 14.1523 13.4977 14.6304 12.8284C14.9704 12.3481 15.3997 12.2886 15.8502 12.4586C16.3092 12.618 18.738 13.8186 19.2374 14.0672C19.7368 14.318 20.0662 14.437 20.1873 14.6474C20.3063 14.8577 20.3063 15.8459 19.8962 17.0061Z" fill="white"/>
</svg>
